<?xml version="1.0" encoding="UTF-8" standalone="no"?> <svg id="Layer_1" data-name="Layer 1" xmlns="http://www.w3.org/2000/svg" viewBox="0 0 64 64"><title>software-computer-hardware-program-process-system</title><path d="M31.811,19.07l2.7.736c.065.171.135.34.213.508l-1.395,2.435a1,1,0,0,0,.088,1.123,11.236,11.236,0,0,0,.808.906,11.081,11.081,0,0,0,.907.808,1,1,0,0,0,1.123.088l2.434-1.395c.168.077.338.149.508.213l.736,2.7a1,1,0,0,0,.855.732,11.05,11.05,0,0,0,2.43,0,1,1,0,0,0,.855-.732l.736-2.7c.17-.064.34-.136.508-.213l2.434,1.395a1,1,0,0,0,1.123-.088,11.081,11.081,0,0,0,.907-.808,10.759,10.759,0,0,0,.808-.907,1,1,0,0,0,.088-1.122l-1.4-2.435c.077-.168.149-.338.213-.508l2.7-.736a1,1,0,0,0,.732-.854,11.109,11.109,0,0,0,0-2.432,1,1,0,0,0-.732-.854l-2.7-.736c-.064-.17-.136-.34-.213-.508l1.4-2.435a1,1,0,0,0-.088-1.122,10.936,10.936,0,0,0-.808-.908,11.256,11.256,0,0,0-.907-.807,1,1,0,0,0-1.123-.088L45.32,9.721c-.168-.078-.338-.149-.508-.213l-.735-2.7a1,1,0,0,0-.856-.732,11.091,11.091,0,0,0-2.43,0,1,1,0,0,0-.855.732l-.736,2.7c-.17.064-.34.136-.508.213L36.258,8.326a1,1,0,0,0-1.123.088,11.081,11.081,0,0,0-.907.808,11.236,11.236,0,0,0-.808.906,1,1,0,0,0-.088,1.123l1.395,2.435c-.078.168-.148.337-.213.508l-2.7.735a1,1,0,0,0-.732.855,11.1,11.1,0,0,0,0,2.431A1,1,0,0,0,31.811,19.07Zm1.207-2.4,2.535-.689a1,1,0,0,0,.7-.682,5.955,5.955,0,0,1,.489-1.169,1,1,0,0,0-.01-.976l-1.311-2.288c.073-.078.147-.157.224-.233s.154-.151.233-.224l2.288,1.31a1,1,0,0,0,.975.011,5.92,5.92,0,0,1,1.169-.488,1,1,0,0,0,.683-.7l.69-2.535c.218-.008.435-.008.653,0l.688,2.535a1,1,0,0,0,.684.7,5.928,5.928,0,0,1,1.17.488,1,1,0,0,0,.975-.011l2.287-1.31c.079.073.156.148.233.224s.151.154.224.233l-1.31,2.288a1,1,0,0,0-.011.975,5.98,5.98,0,0,1,.488,1.169,1,1,0,0,0,.7.683l2.536.69q.012.325,0,.653l-2.536.689a1,1,0,0,0-.7.683,5.98,5.98,0,0,1-.488,1.169,1,1,0,0,0,.011.975l1.31,2.288c-.073.078-.147.156-.223.233s-.155.151-.234.224l-2.287-1.31a1,1,0,0,0-.975-.011,5.963,5.963,0,0,1-1.17.488,1,1,0,0,0-.684.7l-.689,2.535q-.327.012-.652,0l-.69-2.535a1,1,0,0,0-.683-.7,5.92,5.92,0,0,1-1.169-.488,1,1,0,0,0-.975.011l-2.288,1.31c-.079-.073-.156-.147-.233-.224s-.151-.155-.224-.233l1.311-2.288a1,1,0,0,0,.01-.976A5.955,5.955,0,0,1,36.25,18.7a1,1,0,0,0-.7-.682l-2.535-.69Q33.006,17,33.018,16.673Z"/><path d="M42.006,21a4,4,0,1,0-4-4A4,4,0,0,0,42.006,21Zm0-6a2,2,0,1,1-2,2A2,2,0,0,1,42.006,15Z"/><rect x="52" y="6" width="2" height="2"/><rect x="56" y="6" width="2" height="2"/><path d="M3,62H28a1,1,0,0,0,1-1V56a1,1,0,0,0-1-1H3a1,1,0,0,0-1,1v5A1,1,0,0,0,3,62Zm1-5H27v3H4Z"/><path d="M61,2H23a1,1,0,0,0-1,1V25.624A11.99,11.99,0,1,0,28,36H39v6H32a1,1,0,0,0-1,1v5a1,1,0,0,0,1,1H52a1,1,0,0,0,1-1V43a1,1,0,0,0-1-1H45V36H61a1,1,0,0,0,1-1V3A1,1,0,0,0,61,2ZM16,46a10,10,0,1,1,7.466-16.63c.093.105.19.2.278.314.076.092.143.191.215.286.137.182.275.364.4.557.033.05.062.1.094.153.151.242.3.489.429.746.022.041.04.084.061.125.122.246.237.494.338.746.019.046.034.094.052.141.1.249.184.5.259.757.016.055.028.111.043.167.07.253.134.508.183.766.009.046.013.093.021.139.048.272.09.546.115.823h0c.027.3.046.6.046.909A10.011,10.011,0,0,1,16,46Zm35-2v3H33V44H51ZM41,42V36h2v6Zm19-8H27.828c-.008-.049-.022-.1-.031-.145-.039-.217-.087-.431-.138-.644-.033-.141-.069-.28-.108-.419-.061-.22-.127-.438-.2-.654-.016-.045-.027-.092-.043-.138H60Zm0-4H26.384c-.07-.122-.15-.236-.224-.355-.086-.138-.167-.278-.259-.412-.2-.3-.416-.582-.641-.857l-.02-.022c-.229-.278-.473-.543-.726-.8l-.1-.1c-.136-.134-.268-.271-.411-.4V4H60Z"/><path d="M16,32a4,4,0,1,0,4,4A4,4,0,0,0,16,32Zm0,6a2,2,0,1,1,2-2A2,2,0,0,1,16,38Z"/><rect x="4" y="46" width="2" height="7"/><rect x="25" y="46" width="2" height="7"/><rect x="21" y="49" width="2" height="4"/><rect x="8" y="49" width="2" height="4"/><rect x="12" y="51" width="2" height="2"/><rect x="17" y="51" width="2" height="2"/><path d="M60.981,52.7a3.888,3.888,0,0,0-.36-.806c-.011-.019-.025-.037-.037-.056a3.693,3.693,0,0,0-.535-.687,3.732,3.732,0,0,0-.683-.533c-.021-.013-.04-.028-.061-.04a3.953,3.953,0,0,0-.8-.357l-.028-.009a6.3,6.3,0,0,0-5.035.883l-.039.023a9.518,9.518,0,0,0-.956.667c-.018.014-.037.024-.054.038h0c-.025.02-.048.045-.073.065-.257.211-.511.432-.756.677-2.775,2.776-3.4,6.5-1.414,8.485a4.125,4.125,0,0,0,2.992,1.159,5.6,5.6,0,0,0,.678-.042,8.027,8.027,0,0,0,3.94-1.761,10.078,10.078,0,0,0,.876-.77l.013-.014c.239-.241.457-.49.664-.743.02-.024.045-.047.064-.072h0c.014-.017.024-.036.037-.053a9.4,9.4,0,0,0,.67-.961l.019-.032a6.29,6.29,0,0,0,.884-5.043Zm-6.161-.077c.088-.046.176-.094.264-.135s.2-.086.3-.126.176-.072.264-.1.186-.06.279-.086.188-.052.28-.073.166-.034.248-.048c.1-.016.2-.028.3-.037.07-.006.141-.012.209-.014.106,0,.209,0,.31.008.059,0,.119.006.176.014a2.345,2.345,0,0,1,.26.054l-1.9,1.9L54.579,52.75C54.659,52.7,54.74,52.664,54.82,52.622Zm2.4,5.6c-1.917,1.916-4.508,2.563-5.657,1.414a1.966,1.966,0,0,1-.534-1.1A3.076,3.076,0,0,1,51,57.845c0-.046.018-.1.023-.143a4.893,4.893,0,0,1,.361-1.395,7.376,7.376,0,0,1,1.593-2.328h0l4.242,4.243Zm1.965-3.793a4.211,4.211,0,0,1-.095.6c-.014.059-.03.119-.047.179a5.449,5.449,0,0,1-.2.6c-.017.042-.031.084-.049.127a6.735,6.735,0,0,1-.347.689l-1.227-1.227,1.9-1.9c.006.021.015.041.02.062.011.056.026.11.035.168a3.151,3.151,0,0,1,.026.612C59.2,54.367,59.189,54.4,59.186,54.428Z"/></svg>