<?xml version="1.0" standalone="no"?>
<!DOCTYPE svg PUBLIC "-//W3C//DTD SVG 20010904//EN"
 "http://www.w3.org/TR/2001/REC-SVG-20010904/DTD/svg10.dtd">
<svg version="1.0" xmlns="http://www.w3.org/2000/svg"
 width="760.000000pt" height="1280.000000pt" viewBox="0 0 760.000000 1280.000000"
 preserveAspectRatio="xMidYMid meet">
<metadata>
Created by potrace 1.15, written by Peter Selinger 2001-2017
</metadata>
<g transform="translate(0.000000,1280.000000) scale(0.100000,-0.100000)"
fill="#000000" stroke="none">
<path d="M3414 12792 c-19 -12 -31 -43 -58 -147 -40 -148 -58 -182 -109 -196
-49 -13 -103 -51 -112 -78 -3 -11 1 -34 10 -51 16 -31 103 -95 164 -120 l31
-12 -18 -30 c-9 -16 -30 -37 -46 -45 -43 -22 -87 -5 -174 67 -94 76 -107 77
-99 8 4 -29 10 -93 13 -142 l7 -90 -83 58 c-45 31 -84 55 -85 54 -29 -42 -35
-59 -35 -101 0 -46 3 -51 64 -110 77 -76 84 -90 51 -123 -42 -42 -76 -33 -153
41 -37 36 -72 65 -79 65 -41 0 -57 -117 -28 -200 43 -121 -23 -102 -112 31
-56 86 -79 101 -105 69 -52 -64 0 -249 145 -514 l32 -60 0 -170 c0 -94 -3
-184 -8 -199 l-8 -28 -102 7 c-110 7 -147 -2 -147 -34 0 -23 39 -60 115 -107
75 -47 105 -74 105 -95 0 -20 -33 -52 -75 -73 -75 -38 -148 -30 -208 23 -18
15 -42 30 -55 34 -54 17 -151 -45 -172 -110 -15 -45 -1 -90 48 -155 50 -66 65
-102 49 -118 -18 -18 -40 -13 -152 29 -125 48 -195 53 -219 18 -9 -12 -14 -31
-11 -42 2 -12 6 -45 10 -73 l6 -53 -50 0 c-70 0 -101 -14 -101 -45 0 -38 31
-62 97 -74 32 -7 68 -14 81 -17 12 -2 32 -14 43 -25 28 -28 21 -88 -18 -142
-51 -73 -70 -81 -203 -88 -157 -8 -179 -25 -120 -93 45 -50 107 -71 210 -70
105 1 174 17 265 59 91 43 99 51 189 176 62 88 91 118 163 172 49 35 121 83
161 105 79 45 83 44 86 -20 1 -31 -6 -37 -116 -112 l-117 -81 -37 -80 c-29
-65 -52 -96 -121 -166 -47 -48 -83 -92 -79 -97 8 -13 -13 -288 -24 -317 -4
-11 -59 -52 -121 -90 l-114 -70 54 -3 c29 -2 73 1 97 6 24 5 44 7 44 3 0 -4
-36 -42 -80 -86 l-80 -79 51 -52 51 -51 -36 -22 c-44 -27 -121 -113 -146 -161
-10 -19 -24 -65 -30 -100 -18 -95 -88 -234 -150 -300 -58 -60 -72 -91 -57
-132 17 -51 103 -54 222 -6 l60 24 51 149 c29 83 67 200 85 261 l34 111 71 47
c71 46 71 47 78 99 10 87 7 139 -14 207 -11 36 -16 66 -12 68 4 1 111 64 238
141 l231 138 6 -141 c7 -177 22 -230 80 -283 24 -22 65 -48 93 -58 75 -28 71
-32 -18 -19 -46 6 -104 14 -130 17 l-47 6 -51 -153 c-27 -85 -50 -166 -50
-180 0 -14 33 -91 74 -173 l74 -148 -122 -125 c-88 -90 -153 -171 -236 -290
l-115 -165 -12 -93 c-6 -52 -13 -96 -16 -98 -2 -3 -33 -9 -68 -15 -35 -6 -68
-15 -72 -19 -8 -7 100 -104 207 -185 l38 -29 19 26 c57 77 42 85 158 -86 57
-85 113 -166 125 -181 l22 -27 43 56 43 57 -9 120 c-4 65 -6 119 -3 119 3 -1
58 -68 123 -151 86 -109 123 -149 135 -145 9 3 46 10 82 17 41 7 74 20 90 35
41 37 137 91 176 99 30 5 43 1 75 -21 27 -18 46 -24 62 -20 23 5 84 64 103 99
8 15 16 14 77 -8 40 -15 90 -25 121 -25 30 0 67 -3 84 -6 l31 -6 -17 -35 -17
-35 -62 5 c-75 7 -181 -8 -205 -30 -10 -9 -31 -41 -46 -72 -30 -60 -96 -154
-205 -294 l-69 -87 31 -48 c49 -77 100 -195 109 -256 10 -63 1 -140 -22 -184
-15 -28 -14 -30 15 -58 l29 -28 57 28 56 27 -6 -115 -6 -116 57 -16 c31 -9 60
-18 64 -20 3 -2 43 39 88 91 45 52 85 95 89 95 3 0 14 -23 24 -50 l18 -50 -61
-79 c-33 -44 -60 -85 -60 -91 0 -7 10 -25 21 -42 20 -27 20 -33 9 -69 -7 -21
-17 -39 -22 -39 -4 0 -52 7 -105 16 -53 8 -99 11 -103 7 -8 -9 -40 -127 -40
-145 0 -7 34 -38 75 -67 67 -49 75 -58 75 -88 0 -40 -9 -50 -133 -137 -54 -38
-96 -75 -93 -81 2 -6 10 -46 16 -89 7 -43 19 -83 26 -91 7 -7 72 -54 144 -106
72 -51 129 -96 128 -100 -2 -4 -22 -28 -46 -54 -31 -33 -47 -43 -55 -36 -7 5
-52 64 -102 130 -49 66 -92 120 -95 120 -3 0 -24 -17 -47 -37 l-42 -37 39 -63
c30 -47 38 -67 31 -80 -12 -22 -80 -87 -84 -81 -3 2 -19 45 -37 96 -26 75 -37
93 -59 102 -113 43 -154 39 -216 -18 -85 -78 -122 -70 -213 45 l-67 86 -55
-61 -55 -61 -88 0 c-101 0 -99 -4 -50 93 l24 49 -57 61 c-139 149 -207 217
-214 215 -4 -2 -42 -35 -84 -74 l-77 -72 80 -160 80 -161 -105 -128 c-97 -118
-113 -133 -201 -185 -52 -31 -100 -59 -105 -60 -10 -4 63 -197 74 -198 4 0 72
47 151 105 80 58 147 105 150 105 3 0 43 -49 89 -108 l85 -108 6 -212 6 -212
-237 -207 c-130 -113 -246 -214 -257 -223 -18 -16 -29 -16 -125 -4 -58 7 -112
13 -121 14 -9 0 -51 -45 -95 -99 -52 -66 -86 -100 -99 -100 -11 0 -112 15
-225 33 -113 18 -206 33 -207 31 -2 -1 -12 -91 -23 -200 -15 -157 -17 -201 -7
-207 6 -5 32 -20 57 -33 38 -20 53 -38 95 -114 l50 -90 75 -5 c41 -4 97 -8
123 -10 l48 -3 66 74 66 74 126 -3 126 -3 17 -160 c9 -88 17 -171 17 -184 l1
-24 93 7 92 7 46 46 46 45 64 -20 64 -20 48 -150 48 -150 110 -93 111 -92 90
12 91 12 106 109 106 110 70 -18 c71 -18 165 -60 165 -73 0 -4 -50 -48 -111
-97 -107 -87 -113 -94 -146 -169 -20 -43 -38 -91 -42 -107 -6 -29 -9 -30 -141
-58 -74 -16 -142 -29 -150 -30 -8 -1 -97 51 -198 115 l-182 117 -202 -5 c-234
-6 -196 15 -298 -165 l-66 -115 -65 -3 -65 -3 -40 75 -40 75 -71 -72 -71 -72
33 -108 33 -108 -172 -128 -171 -127 -49 17 c-27 9 -55 15 -61 12 -7 -2 -32
-42 -56 -88 l-44 -84 -87 -41 -87 -42 -30 -76 -29 -77 -239 -7 c-131 -4 -258
-11 -283 -15 l-45 -8 3 -75 c2 -41 4 -76 5 -77 2 -1 36 -9 77 -17 141 -30 244
-82 292 -148 12 -18 27 -57 33 -86 l11 -54 71 66 c77 72 125 138 149 208 8 25
26 56 39 68 21 20 31 22 76 17 29 -4 74 -19 105 -37 l54 -30 50 100 c28 55 53
100 57 100 16 0 269 -118 582 -271 189 -93 351 -169 360 -169 28 0 157 224
294 510 38 80 70 146 71 147 1 1 107 -30 236 -68 534 -158 1038 -299 1071
-299 19 0 39 69 39 135 0 63 1 65 26 65 14 0 152 -7 306 -16 154 -9 282 -13
285 -10 3 3 -8 60 -25 128 -17 67 -30 124 -28 125 1 1 124 -85 272 -192 244
-176 273 -195 310 -195 22 0 168 9 324 20 l283 20 162 -105 163 -106 308 132
307 132 37 -43 36 -42 87 99 86 99 151 15 c83 9 153 19 156 22 11 11 91 452
82 455 -4 2 -116 -13 -249 -34 -136 -21 -244 -33 -248 -28 -5 5 -21 61 -36
124 -15 63 -31 119 -35 123 -4 5 -69 13 -145 18 -232 18 -246 42 -33 59 68 5
166 10 218 10 l95 0 67 127 67 128 -95 29 c-52 16 -94 33 -94 38 0 4 69 6 153
2 l153 -5 77 48 c42 26 77 52 77 56 0 4 -25 42 -55 82 -30 41 -55 77 -55 79 0
2 48 -9 107 -25 l108 -28 24 22 c13 12 66 71 117 131 251 292 385 569 371 771
-5 70 -11 91 -54 175 -104 206 -346 394 -643 498 -134 47 -239 65 -354 60
-113 -5 -164 -23 -209 -78 -30 -35 -51 -101 -45 -142 6 -36 -9 -36 -87 1 -101
47 -164 129 -165 213 0 53 25 71 154 114 73 24 121 46 139 64 82 78 45 271
-114 602 -48 98 -79 175 -77 189 2 19 14 25 71 39 37 9 73 22 79 28 34 34 -7
148 -135 369 -161 277 -162 293 -17 390 64 44 84 68 76 96 -9 37 -82 114 -191
200 -55 43 -108 89 -118 101 -9 11 -47 78 -84 148 -130 248 -225 329 -422 356
-39 6 -86 19 -104 29 -71 41 -125 162 -153 343 -36 238 -5 794 62 1080 20 85
11 105 -72 155 -129 78 -189 170 -255 390 -69 232 -120 320 -213 367 -35 18
-51 20 -126 14 -200 -15 -291 -25 -388 -45 -116 -23 -234 -27 -271 -8 -33 16
-64 71 -56 97 17 53 116 75 273 59 121 -12 122 -12 156 73 28 70 47 72 157 15
46 -25 103 -51 127 -58 40 -12 45 -11 65 10 19 19 22 32 21 104 -2 132 -50
219 -139 251 l-40 13 256 259 c343 348 460 484 573 664 60 96 85 166 96 262
14 121 38 159 143 219 72 43 94 68 107 123 12 53 1 85 -43 128 -122 118 -563
243 -884 251 l-101 2 -120 63 c-151 78 -166 79 -267 12 -106 -69 -182 -103
-225 -101 -66 4 -165 5 -261 2 -141 -5 -162 14 -118 106 26 53 91 111 135 119
25 5 41 1 66 -17 23 -17 47 -24 80 -24 46 0 50 3 123 75 106 105 102 116 -46
129 -85 7 -110 20 -93 49 6 9 175 132 376 272 529 369 499 346 565 448 68 105
113 201 113 241 0 23 -7 32 -32 44 -104 48 -451 88 -767 86 -217 0 -239 -4
-264 -49 -29 -53 -89 -123 -97 -113 -4 4 -12 40 -19 79 -17 97 -47 158 -116
233 -83 89 -174 138 -211 113z"/>
</g>
</svg>
